<svg xmlns="http://www.w3.org/2000/svg" xmlns:xlink="http://www.w3.org/1999/xlink" width="500" zoomAndPan="magnify" viewBox="0 0 375 374.999991" height="500" preserveAspectRatio="xMidYMid meet" version="1.0"><defs><g/></defs><g fill="#d44646" fill-opacity="1"><g transform="translate(171.131747, 258.38983)"><g><path d="M 127.65625 -147.578125 C 131.382812 -150.097656 135.828125 -152.070312 140.984375 -153.5 C 146.148438 -154.925781 150.320312 -155.640625 153.5 -155.640625 C 156.6875 -155.640625 158.722656 -155.640625 159.609375 -155.640625 L 159.609375 -154 C 154.441406 -153.78125 149.609375 -152.765625 145.109375 -150.953125 C 140.609375 -149.140625 136.898438 -147.050781 133.984375 -144.6875 C 131.078125 -142.332031 128.25 -139.203125 125.5 -135.296875 C 122.757812 -131.398438 120.648438 -128.078125 119.171875 -125.328125 C 117.691406 -122.585938 115.960938 -119.078125 113.984375 -114.796875 L 68.1875 -14.65625 C 64.125 -5.757812 62.09375 -0.101562 62.09375 2.3125 L 60.625 2.3125 L 14.34375 -103.265625 C 12.800781 -106.785156 10.679688 -109.394531 7.984375 -111.09375 C 5.296875 -112.789062 2.582031 -113.640625 -0.15625 -113.640625 L -1.46875 -113.640625 L -1.46875 -115.296875 L 35.578125 -115.296875 L 35.578125 -113.640625 L 34.09375 -113.640625 C 30.800781 -113.640625 28.609375 -112.101562 27.515625 -109.03125 C 27.296875 -108.375 27.1875 -107.601562 27.1875 -106.71875 C 27.1875 -105.84375 27.457031 -104.75 28 -103.4375 L 62.421875 -17.125 L 103.28125 -114.796875 C 109.757812 -130.054688 117.882812 -140.984375 127.65625 -147.578125 Z M 127.65625 -147.578125 "/></g></g></g><g fill="#d44646" fill-opacity="1"><g transform="translate(92.736494, 229.751637)"><g><path d="M 18.890625 -116.5625 C 25.773438 -119.414062 32.394531 -120.84375 38.75 -120.84375 C 44.039062 -120.84375 49.488281 -118.882812 55.09375 -114.96875 C 58.164062 -112.851562 61.609375 -108.722656 65.421875 -102.578125 C 67.960938 -98.347656 71.191406 -90.675781 75.109375 -79.5625 L 94.484375 -24.609375 C 98.929688 -12.328125 103.457031 -2.5625 108.0625 4.6875 C 112.664062 11.9375 116.875 17.382812 120.6875 21.03125 C 124.5 24.6875 128.46875 27.253906 132.59375 28.734375 C 136.71875 30.222656 140.128906 30.96875 142.828125 30.96875 C 145.535156 30.96875 147.945312 30.753906 150.0625 30.328125 L 150.21875 31.921875 C 145.132812 33.609375 140.15625 34.453125 135.28125 34.453125 C 130.414062 34.453125 125.546875 33.207031 120.671875 30.71875 C 115.804688 28.238281 111.257812 24.773438 107.03125 20.328125 C 97.925781 11.117188 90.195312 -2.90625 83.84375 -21.75 L 77.65625 -39.859375 L 34.140625 -39.859375 L 23.1875 -11.59375 C 22.65625 -10.320312 22.390625 -9.050781 22.390625 -7.78125 C 22.390625 -6.507812 22.941406 -5.160156 24.046875 -3.734375 C 25.160156 -2.304688 26.882812 -1.59375 29.21875 -1.59375 L 30.484375 -1.59375 L 30.484375 0 L -1.4375 0 L -1.4375 -1.59375 L 0 -1.59375 C 2.539062 -1.59375 5.023438 -2.359375 7.453125 -3.890625 C 9.890625 -5.421875 11.90625 -7.722656 13.5 -10.796875 L 52.875 -105.125 C 47.15625 -113.269531 40.0625 -117.34375 31.59375 -117.34375 C 27.78125 -117.34375 23.707031 -116.550781 19.375 -114.96875 Z M 35.890625 -44.625 L 76.0625 -44.625 L 63.515625 -81.625 C 61.078125 -88.71875 58.851562 -94.273438 56.84375 -98.296875 Z M 35.890625 -44.625 "/></g></g></g><path fill="#ffffff" d="M 92.589844 179.496094 L 314.074219 179.496094 C 315.132812 179.496094 316.148438 179.917969 316.898438 180.667969 C 317.648438 181.417969 318.070312 182.4375 318.070312 183.5 L 318.070312 191.5 C 318.070312 192.5625 317.648438 193.582031 316.898438 194.332031 C 316.148438 195.082031 315.132812 195.503906 314.074219 195.503906 L 92.589844 195.503906 C 90.378906 195.503906 88.589844 193.710938 88.589844 191.5 L 88.589844 183.5 C 88.589844 181.289062 90.378906 179.496094 92.589844 179.496094 " fill-opacity="1" fill-rule="nonzero"/><g fill="#000000" fill-opacity="1"><g transform="translate(96.452151, 190.499987)"><g><path d="M -0.09375 0 L 2.9375 -7.109375 L 4.03125 -7.109375 L 6.953125 0 L 5.625 0 L 4.984375 -1.625 L 1.890625 -1.625 L 1.21875 0 Z M 2.328125 -2.71875 L 4.5625 -2.71875 L 3.46875 -5.515625 Z M 2.328125 -2.71875 "/></g></g></g><g fill="#000000" fill-opacity="1"><g transform="translate(110.960094, 190.499987)"><g><path d="M 6.34375 -1.234375 L 6.65625 -0.234375 C 6.519531 -0.128906 6.351562 -0.0507812 6.15625 0 C 5.96875 0.0625 5.765625 0.09375 5.546875 0.09375 C 4.796875 0.09375 4.207031 -0.238281 3.78125 -0.90625 L 2.75 -2.484375 C 2.644531 -2.648438 2.535156 -2.765625 2.421875 -2.828125 C 2.304688 -2.898438 2.179688 -2.9375 2.046875 -2.9375 L 2 -2.9375 L 2 0 L 0.734375 0 L 0.734375 -7.109375 L 2.9375 -7.109375 C 3.84375 -7.109375 4.523438 -6.921875 4.984375 -6.546875 C 5.453125 -6.171875 5.6875 -5.660156 5.6875 -5.015625 C 5.6875 -4.617188 5.597656 -4.273438 5.421875 -3.984375 C 5.253906 -3.703125 5.019531 -3.476562 4.71875 -3.3125 C 4.414062 -3.144531 4.078125 -3.039062 3.703125 -3 C 3.898438 -2.882812 4.082031 -2.703125 4.25 -2.453125 L 4.8125 -1.625 C 4.957031 -1.40625 5.09375 -1.253906 5.21875 -1.171875 C 5.351562 -1.097656 5.519531 -1.0625 5.71875 -1.0625 C 5.945312 -1.0625 6.15625 -1.117188 6.34375 -1.234375 Z M 2.859375 -6.046875 L 2 -6.046875 L 2 -3.953125 L 2.796875 -3.953125 C 3.335938 -3.953125 3.738281 -4.035156 4 -4.203125 C 4.257812 -4.367188 4.390625 -4.640625 4.390625 -5.015625 C 4.390625 -5.703125 3.878906 -6.046875 2.859375 -6.046875 Z M 2.859375 -6.046875 "/></g></g></g><g fill="#000000" fill-opacity="1"><g transform="translate(124.857564, 190.499987)"><g><path d="M 0.734375 0 L 0.734375 -7.109375 L 2.03125 -7.109375 L 2.03125 -1.140625 L 5.203125 -1.140625 L 5.109375 0 Z M 0.734375 0 "/></g></g></g><g fill="#000000" fill-opacity="1"><g transform="translate(137.62414, 190.499987)"><g><path d="M 5.3125 -5.984375 L 2 -5.984375 L 2 -4.15625 L 5.140625 -4.15625 L 5.140625 -3.03125 L 2 -3.03125 L 2 -1.125 L 5.421875 -1.125 L 5.34375 0 L 0.734375 0 L 0.734375 -7.109375 L 5.3125 -7.109375 Z M 5.3125 -5.984375 "/></g></g></g><g fill="#000000" fill-opacity="1"><g transform="translate(150.901122, 190.499987)"><g><path d="M 5.890625 -7.109375 L 5.734375 -5.96875 L 3.53125 -5.96875 L 3.53125 0 L 2.21875 0 L 2.21875 -5.96875 L -0.0625 -5.96875 L -0.0625 -7.109375 Z M 5.890625 -7.109375 "/></g></g></g><g fill="#000000" fill-opacity="1"><g transform="translate(164.268169, 190.499987)"><g><path d="M 0.734375 0 L 0.734375 -7.109375 L 2.03125 -7.109375 L 2.03125 -4.171875 L 5.40625 -4.171875 L 5.40625 -7.109375 L 6.703125 -7.109375 L 6.703125 0 L 5.40625 0 L 5.40625 -3.03125 L 2.03125 -3.03125 L 2.03125 0 Z M 0.734375 0 "/></g></g></g><g fill="#000000" fill-opacity="1"><g transform="translate(179.315427, 190.499987)"><g/></g></g><g fill="#000000" fill-opacity="1"><g transform="translate(189.369879, 190.499987)"><g/></g></g><g fill="#000000" fill-opacity="1"><g transform="translate(199.413082, 190.499987)"><g><path d="M 5.25 -7.109375 L 6.546875 -7.109375 L 3.953125 0 L 2.140625 0 L -0.015625 -7.109375 L 1.375 -7.109375 L 3.125 -1.09375 Z M 5.25 -7.109375 "/></g></g></g><g fill="#000000" fill-opacity="1"><g transform="translate(213.320554, 190.499987)"><g><path d="M -0.09375 0 L 2.9375 -7.109375 L 4.03125 -7.109375 L 6.953125 0 L 5.625 0 L 4.984375 -1.625 L 1.890625 -1.625 L 1.21875 0 Z M 2.328125 -2.71875 L 4.5625 -2.71875 L 3.46875 -5.515625 Z M 2.328125 -2.71875 "/></g></g></g><g fill="#000000" fill-opacity="1"><g transform="translate(227.828497, 190.499987)"><g><path d="M 0.734375 0 L 0.734375 -7.109375 L 2.03125 -7.109375 L 2.03125 -1.140625 L 5.203125 -1.140625 L 5.109375 0 Z M 0.734375 0 "/></g></g></g><g fill="#000000" fill-opacity="1"><g transform="translate(240.595072, 190.499987)"><g><path d="M 5.3125 -5.984375 L 2 -5.984375 L 2 -4.15625 L 5.140625 -4.15625 L 5.140625 -3.03125 L 2 -3.03125 L 2 -1.125 L 5.421875 -1.125 L 5.34375 0 L 0.734375 0 L 0.734375 -7.109375 L 5.3125 -7.109375 Z M 5.3125 -5.984375 "/></g></g></g><g fill="#000000" fill-opacity="1"><g transform="translate(253.872054, 190.499987)"><g><path d="M 5.40625 -7.109375 L 6.65625 -7.109375 L 6.65625 0 L 5.515625 0 L 1.984375 -4.953125 L 1.984375 0 L 0.734375 0 L 0.734375 -7.109375 L 1.875 -7.109375 L 5.40625 -2.15625 Z M 5.40625 -7.109375 "/></g></g></g><g fill="#000000" fill-opacity="1"><g transform="translate(268.88039, 190.499987)"><g><path d="M 6.765625 -1.375 C 6.484375 -0.90625 6.09375 -0.539062 5.59375 -0.28125 C 5.101562 -0.03125 4.550781 0.09375 3.9375 0.09375 C 3.207031 0.09375 2.582031 -0.046875 2.0625 -0.328125 C 1.539062 -0.609375 1.140625 -1.007812 0.859375 -1.53125 C 0.585938 -2.0625 0.453125 -2.691406 0.453125 -3.421875 C 0.453125 -4.171875 0.601562 -4.828125 0.90625 -5.390625 C 1.21875 -5.960938 1.644531 -6.410156 2.1875 -6.734375 C 2.738281 -7.054688 3.375 -7.21875 4.09375 -7.21875 C 4.707031 -7.21875 5.234375 -7.097656 5.671875 -6.859375 C 6.109375 -6.628906 6.472656 -6.273438 6.765625 -5.796875 L 5.765625 -5.078125 C 5.585938 -5.410156 5.351562 -5.65625 5.0625 -5.8125 C 4.769531 -5.96875 4.445312 -6.046875 4.09375 -6.046875 C 3.632812 -6.046875 3.226562 -5.929688 2.875 -5.703125 C 2.53125 -5.484375 2.257812 -5.175781 2.0625 -4.78125 C 1.863281 -4.394531 1.765625 -3.945312 1.765625 -3.4375 C 1.765625 -2.695312 1.957031 -2.117188 2.34375 -1.703125 C 2.726562 -1.285156 3.265625 -1.078125 3.953125 -1.078125 C 4.335938 -1.078125 4.6875 -1.164062 5 -1.34375 C 5.320312 -1.519531 5.585938 -1.785156 5.796875 -2.140625 Z M 6.765625 -1.375 "/></g></g></g><g fill="#000000" fill-opacity="1"><g transform="translate(283.188176, 190.499987)"><g><path d="M 0.734375 0 L 0.734375 -7.109375 L 2.03125 -7.109375 L 2.03125 0 Z M 0.734375 0 "/></g></g></g><g fill="#000000" fill-opacity="1"><g transform="translate(293.572882, 190.499987)"><g><path d="M -0.09375 0 L 2.9375 -7.109375 L 4.03125 -7.109375 L 6.953125 0 L 5.625 0 L 4.984375 -1.625 L 1.890625 -1.625 L 1.21875 0 Z M 2.328125 -2.71875 L 4.5625 -2.71875 L 3.46875 -5.515625 Z M 2.328125 -2.71875 "/></g></g></g><g fill="#000000" fill-opacity="1"><g transform="translate(308.069325, 190.499987)"><g/></g></g></svg>